<svg xmlns="http://www.w3.org/2000/svg" width="26" height="24" viewBox="0 0 26 24">
  <path id="Image" d="M23.2,24H2.8A2.807,2.807,0,0,1,0,21.2V8.8A2.808,2.808,0,0,1,2.8,6H23.2A2.808,2.808,0,0,1,26,8.8V21.2A2.807,2.807,0,0,1,23.2,24ZM10.124,12.505a1.3,1.3,0,0,0-1.07.577L6.5,17.1a1.283,1.283,0,0,0-.012,1.267,1.176,1.176,0,0,0,1.05.56H18.3a1.1,1.1,0,0,0,.925-.521,1.262,1.262,0,0,0,.113-1.194L16.929,11.57a1.135,1.135,0,0,0-1.077-.687,1.247,1.247,0,0,0-.977.461l-1.489,2.189a1.16,1.16,0,0,1-1.94,0l-.451-.564A1.014,1.014,0,0,0,10.124,12.505ZM22,5H4A1,1,0,1,1,4,3H22a1,1,0,0,1,0,2ZM20,2H6A1,1,0,0,1,6,0H20a1,1,0,0,1,0,2Z" transform="translate(0)" fill="#fff"/>
</svg>
