<svg id="Group_825" data-name="Group 825" xmlns="http://www.w3.org/2000/svg" width="123.555" height="38.958" viewBox="0 0 123.555 38.958">
  <g id="Group_821" data-name="Group 821" transform="translate(58.031 1.24)">
    <path id="Path_1009" data-name="Path 1009" d="M714.235,22.921c7.844,3.926,12.478,8.758,12.478,13.986,0,12.579-26.8,22.876-60.733,23.729q1.562.008,3.14-.008c34.6-.4,62.525-10.588,62.383-22.764C731.434,32,724.878,26.751,714.235,22.921Z" transform="translate(-665.98 -22.921)" fill="#ffd400"/>
  </g>
  <g id="Group_822" data-name="Group 822">
    <path id="Path_1010" data-name="Path 1010" d="M17.635,32.828c0-12.65,27.009-23,61.153-23.809q-2.078-.051-4.193-.053c-34.093,0-61.73,10.074-61.73,22.5,0,6.425,7.388,12.221,19.233,16.321C23.053,43.7,17.635,38.493,17.635,32.828Z" transform="translate(-12.864 -8.966)" fill="#e5002b"/>
  </g>
  <g id="Group_824" data-name="Group 824" transform="translate(20.723 10.744)">
    <g id="Group_823" data-name="Group 823" transform="translate(0 12.597)">
      <path id="Path_1011" data-name="Path 1011" d="M248.513,276.435l-.257-.707h-1.21l-.247.707h-.7l1.412-3.539h.275l1.42,3.539Zm-.864-2.472-.424,1.29h.848Z" transform="translate(-246.1 -272.786)" fill="#8a000b"/>
      <path id="Path_1012" data-name="Path 1012" d="M286.049,271.8l.6-.143v2.873c0,.312.094.5.285.562a.5.5,0,0,1-.478.264c-.273,0-.409-.189-.409-.563Z" transform="translate(-282.499 -271.66)" fill="#8a000b"/>
      <path id="Path_1013" data-name="Path 1013" d="M300.576,294.223v-.561h1.277v.561Z" transform="translate(-295.736 -291.707)" fill="#8a000b"/>
      <path id="Path_1014" data-name="Path 1014" d="M322.156,276.944h-.608l-.368-1.882-.713,1.929h-.224l-.714-1.929-.383,1.882h-.605l.714-3.493h.333l.766,2.35.748-2.35h.33Z" transform="translate(-312.104 -273.292)" fill="#8a000b"/>
      <path id="Path_1015" data-name="Path 1015" d="M362.822,285.8a.588.588,0,0,1-.289.22,1.1,1.1,0,0,1-.426.086.97.97,0,0,1-.658-.207.73.73,0,0,1-.24-.585.819.819,0,0,1,.339-.694,1.582,1.582,0,0,1,.959-.25,1.083,1.083,0,0,1,.251.034c0-.3-.193-.449-.577-.449a1.329,1.329,0,0,0-.572.11l-.13-.461a1.716,1.716,0,0,1,.743-.147,1.2,1.2,0,0,1,.864.266,1.4,1.4,0,0,1,.276,1.007v.546c0,.34.069.554.207.641a.325.325,0,0,1-.165.159.693.693,0,0,1-.21.03.335.335,0,0,1-.233-.1A.48.48,0,0,1,362.822,285.8Zm-.061-.945a1.284,1.284,0,0,0-.232-.031c-.476,0-.717.155-.717.464,0,.228.135.344.405.344a.477.477,0,0,0,.544-.537Z" transform="translate(-350.981 -282.413)" fill="#8a000b"/>
      <path id="Path_1016" data-name="Path 1016" d="M393.172,275.309v-.155a.631.631,0,0,1-.254.143,1.153,1.153,0,0,1-.368.062,1.1,1.1,0,0,1-.849-.34,1.342,1.342,0,0,1-.308-.943,1.391,1.391,0,0,1,.353-.987,1.171,1.171,0,0,1,.891-.379,1.2,1.2,0,0,1,.536.119V271.8l.6-.143v3.649Zm0-1.943a.644.644,0,0,0-.4-.154.705.705,0,0,0-.556.22.906.906,0,0,0-.2.626.693.693,0,0,0,.774.8.572.572,0,0,0,.214-.051.416.416,0,0,0,.167-.1Z" transform="translate(-378.483 -271.66)" fill="#8a000b"/>
      <path id="Path_1017" data-name="Path 1017" d="M423.484,276.407v-2.063h-.33v-.491h.941v2.555Zm.312-3.542a.343.343,0,0,1,.249.1.345.345,0,0,1,0,.489.348.348,0,0,1-.249.1.343.343,0,0,1-.248-.1.345.345,0,0,1,0-.489A.338.338,0,0,1,423.8,272.865Z" transform="translate(-407.423 -272.758)" fill="#8a000b"/>
      <path id="Path_1018" data-name="Path 1018" d="M443.265,286.062v-1.473a.75.75,0,0,0-.125-.478.515.515,0,0,0-.415-.151.637.637,0,0,0-.282.074.628.628,0,0,0-.237.184v1.844h-.6v-2.555h.433l.111.239a.911.911,0,0,1,.726-.285.967.967,0,0,1,.729.272,1.046,1.046,0,0,1,.267.762v1.566Z" transform="translate(-424.232 -282.413)" fill="#8a000b"/>
      <path id="Path_1019" data-name="Path 1019" d="M474.147,285.8a.572.572,0,0,1-.287.22,1.1,1.1,0,0,1-.426.086.968.968,0,0,1-.658-.207.737.737,0,0,1-.239-.585.823.823,0,0,1,.336-.694,1.6,1.6,0,0,1,.96-.25,1.1,1.1,0,0,1,.253.034c0-.3-.194-.449-.579-.449a1.33,1.33,0,0,0-.572.11l-.13-.461a1.705,1.705,0,0,1,.741-.147,1.212,1.212,0,0,1,.867.266,1.4,1.4,0,0,1,.276,1.007v.546c0,.34.068.554.207.641a.337.337,0,0,1-.167.159.684.684,0,0,1-.208.03.331.331,0,0,1-.233-.1A.527.527,0,0,1,474.147,285.8Zm-.058-.945a1.312,1.312,0,0,0-.233-.031q-.716,0-.716.464c0,.228.135.344.405.344a.477.477,0,0,0,.544-.537Z" transform="translate(-452.418 -282.413)" fill="#8a000b"/>
      <path id="Path_1020" data-name="Path 1020" d="M505.717,275.309v-1.572a.5.5,0,0,0-.149-.382.54.54,0,0,0-.39-.143.633.633,0,0,0-.3.082.538.538,0,0,0-.217.181v1.833h-.612V271.8l.612-.143v1.256a.934.934,0,0,1,.644-.208.928.928,0,0,1,1.018,1.026v1.575Z" transform="translate(-481.13 -271.66)" fill="#8a000b"/>
      <path id="Path_1021" data-name="Path 1021" d="M554.307,276.941v-3.49h.626v3.49Z" transform="translate(-526.922 -273.292)" fill="#8a000b"/>
      <path id="Path_1022" data-name="Path 1022" d="M570.906,286.062v-1.473a.75.75,0,0,0-.125-.478.513.513,0,0,0-.415-.151.642.642,0,0,0-.283.074.62.62,0,0,0-.236.184v1.844h-.6v-2.555h.434l.108.239a.917.917,0,0,1,.729-.285.968.968,0,0,1,.727.272,1.045,1.045,0,0,1,.267.762v1.566Z" transform="translate(-540.532 -282.413)" fill="#8a000b"/>
      <path id="Path_1023" data-name="Path 1023" d="M600.068,276.9h-.3v-.482h.3V275.9l.6-.22v.738h.709v.482h-.709v1.118a.654.654,0,0,0,.084.386.369.369,0,0,0,.307.113.746.746,0,0,0,.4-.115v.549a1.96,1.96,0,0,1-.6.071.791.791,0,0,1-.6-.217.854.854,0,0,1-.205-.614Z" transform="translate(-568.345 -275.319)" fill="#8a000b"/>
      <path id="Path_1024" data-name="Path 1024" d="M624.7,284.966h-1.848a.657.657,0,0,0,.214.476.779.779,0,0,0,.526.168.854.854,0,0,0,.626-.211l.233.453a1.483,1.483,0,0,1-.948.258,1.269,1.269,0,0,1-.935-.343,1.293,1.293,0,0,1-.341-.955,1.318,1.318,0,0,1,.376-.978,1.335,1.335,0,0,1,1.807-.042,1.122,1.122,0,0,1,.342.842A1.594,1.594,0,0,1,624.7,284.966Zm-1.824-.449h1.269a.565.565,0,0,0-.626-.557A.62.62,0,0,0,622.872,284.517Z" transform="translate(-588.804 -282.413)" fill="#8a000b"/>
      <path id="Path_1025" data-name="Path 1025" d="M657.551,284.063a.661.661,0,0,0-.354-.1.488.488,0,0,0-.373.188.687.687,0,0,0-.162.46v1.454h-.6v-2.555h.6v.236a.858.858,0,0,1,.673-.282.969.969,0,0,1,.472.092Z" transform="translate(-619.634 -282.413)" fill="#8a000b"/>
      <path id="Path_1026" data-name="Path 1026" d="M681.486,286.062v-1.473a.735.735,0,0,0-.126-.478.507.507,0,0,0-.414-.151.734.734,0,0,0-.519.258v1.844h-.6v-2.555h.434l.111.239a.905.905,0,0,1,.726-.285.969.969,0,0,1,.727.272,1.045,1.045,0,0,1,.265.762v1.566Z" transform="translate(-641.287 -282.413)" fill="#8a000b"/>
      <path id="Path_1027" data-name="Path 1027" d="M712.352,285.8a.588.588,0,0,1-.286.22,1.111,1.111,0,0,1-.426.086.965.965,0,0,1-.658-.207.73.73,0,0,1-.24-.585.82.82,0,0,1,.338-.694,1.583,1.583,0,0,1,.96-.25,1.091,1.091,0,0,1,.251.034c0-.3-.193-.449-.579-.449a1.333,1.333,0,0,0-.571.11l-.132-.461a1.717,1.717,0,0,1,.743-.147,1.21,1.21,0,0,1,.866.266,1.4,1.4,0,0,1,.276,1.007v.546q0,.51.207.641a.336.336,0,0,1-.165.159.7.7,0,0,1-.211.03.34.34,0,0,1-.233-.1A.536.536,0,0,1,712.352,285.8Zm-.057-.945a1.329,1.329,0,0,0-.233-.031q-.716,0-.716.464c0,.228.135.344.4.344a.479.479,0,0,0,.546-.537Z" transform="translate(-669.458 -282.413)" fill="#8a000b"/>
      <path id="Path_1028" data-name="Path 1028" d="M740.268,276.9h-.3v-.482h.3V275.9l.6-.22v.738h.71v.482h-.71v1.118a.639.639,0,0,0,.087.386.359.359,0,0,0,.3.113.755.755,0,0,0,.407-.115v.549a1.989,1.989,0,0,1-.6.071.78.78,0,0,1-.593-.217.843.843,0,0,1-.208-.614Z" transform="translate(-696.088 -275.319)" fill="#8a000b"/>
      <path id="Path_1029" data-name="Path 1029" d="M762.767,276.407v-2.063h-.33v-.491h.941v2.555Zm.311-3.542a.336.336,0,0,1,.249.1.342.342,0,0,1,0,.489.353.353,0,0,1-.5,0,.345.345,0,0,1,0-.489A.337.337,0,0,1,763.078,272.865Z" transform="translate(-716.559 -272.758)" fill="#8a000b"/>
      <path id="Path_1030" data-name="Path 1030" d="M779,284.781a1.345,1.345,0,0,1,.341-.952,1.165,1.165,0,0,1,.9-.367,1.183,1.183,0,0,1,.912.352,1.6,1.6,0,0,1-.006,1.937,1.326,1.326,0,0,1-1.823,0A1.389,1.389,0,0,1,779,284.781Zm.626,0c0,.563.206.842.617.842a.532.532,0,0,0,.447-.219,1.012,1.012,0,0,0,.167-.623c0-.554-.207-.833-.613-.833a.529.529,0,0,0-.448.219A1,1,0,0,0,779.622,284.781Z" transform="translate(-731.647 -282.413)" fill="#8a000b"/>
      <path id="Path_1031" data-name="Path 1031" d="M814.045,286.062v-1.473a.733.733,0,0,0-.127-.478.511.511,0,0,0-.414-.151.643.643,0,0,0-.283.074.654.654,0,0,0-.236.184v1.844h-.6v-2.555h.432l.111.239a.913.913,0,0,1,.726-.285.966.966,0,0,1,.727.272,1.035,1.035,0,0,1,.268.762v1.566Z" transform="translate(-762.068 -282.413)" fill="#8a000b"/>
      <path id="Path_1032" data-name="Path 1032" d="M844.9,285.8a.583.583,0,0,1-.289.22,1.1,1.1,0,0,1-.425.086.967.967,0,0,1-.658-.207.73.73,0,0,1-.24-.585.815.815,0,0,1,.339-.694,1.578,1.578,0,0,1,.959-.25,1.1,1.1,0,0,1,.253.034c0-.3-.193-.449-.579-.449a1.33,1.33,0,0,0-.572.11l-.13-.461a1.717,1.717,0,0,1,.743-.147,1.21,1.21,0,0,1,.865.266,1.394,1.394,0,0,1,.277,1.007v.546q0,.51.208.641a.335.335,0,0,1-.168.159.688.688,0,0,1-.21.03.341.341,0,0,1-.233-.1A.5.5,0,0,1,844.9,285.8Zm-.06-.945a1.336,1.336,0,0,0-.23-.031c-.48,0-.716.155-.716.464,0,.228.135.344.4.344a.478.478,0,0,0,.544-.537Z" transform="translate(-790.224 -282.413)" fill="#8a000b"/>
      <path id="Path_1033" data-name="Path 1033" d="M875.969,271.8l.6-.143v2.873c0,.312.1.5.286.562a.5.5,0,0,1-.479.264c-.273,0-.41-.189-.41-.563Z" transform="translate(-820.004 -271.66)" fill="#8a000b"/>
      <path id="Path_1034" data-name="Path 1034" d="M908.4,273.451h.625v2.367a.627.627,0,0,0,.173.457.645.645,0,0,0,.479.176.767.767,0,0,0,.53-.172.613.613,0,0,0,.189-.474v-2.354h.626v2.4a1.04,1.04,0,0,1-.365.843,1.468,1.468,0,0,1-.975.3,1.382,1.382,0,0,1-.95-.3,1.078,1.078,0,0,1-.333-.854Z" transform="translate(-849.555 -273.292)" fill="#8a000b"/>
      <path id="Path_1035" data-name="Path 1035" d="M947.307,286.062v-1.473a.718.718,0,0,0-.129-.478.5.5,0,0,0-.412-.151.649.649,0,0,0-.285.074.682.682,0,0,0-.236.184v1.844h-.6v-2.555h.433l.111.239a.913.913,0,0,1,.726-.285.972.972,0,0,1,.73.272,1.044,1.044,0,0,1,.265.762v1.566Z" transform="translate(-883.488 -282.413)" fill="#8a000b"/>
      <path id="Path_1036" data-name="Path 1036" d="M976.926,276.407v-2.063h-.332v-.491h.939v2.555Zm.312-3.542a.339.339,0,0,1,.247.1.345.345,0,0,1,0,.489.355.355,0,0,1-.5,0,.346.346,0,0,1,0-.489A.34.34,0,0,1,977.238,272.865Z" transform="translate(-911.688 -272.758)" fill="#8a000b"/>
      <path id="Path_1037" data-name="Path 1037" d="M992.932,286.582h-.218l-1.167-2.6h.662l.618,1.562.664-1.562h.639Z" transform="translate(-925.313 -282.884)" fill="#8a000b"/>
      <path id="Path_1038" data-name="Path 1038" d="M1024.942,284.966h-1.847a.656.656,0,0,0,.213.476.779.779,0,0,0,.526.168.855.855,0,0,0,.627-.211l.234.453a1.485,1.485,0,0,1-.95.258,1.262,1.262,0,0,1-.934-.343,1.289,1.289,0,0,1-.345-.955,1.32,1.32,0,0,1,.379-.978,1.335,1.335,0,0,1,1.807-.042,1.122,1.122,0,0,1,.342.842A1.7,1.7,0,0,1,1024.942,284.966Zm-1.825-.449h1.268a.564.564,0,0,0-.628-.557A.618.618,0,0,0,1023.117,284.517Z" transform="translate(-953.484 -282.413)" fill="#8a000b"/>
      <path id="Path_1039" data-name="Path 1039" d="M1057.838,284.063a.654.654,0,0,0-.352-.1.485.485,0,0,0-.373.188.68.68,0,0,0-.164.46v1.454h-.6v-2.555h.6v.236a.862.862,0,0,1,.676-.282.944.944,0,0,1,.468.092Z" transform="translate(-984.356 -282.413)" fill="#8a000b"/>
      <path id="Path_1040" data-name="Path 1040" d="M1078.214,285.9l.217-.474a.973.973,0,0,0,.609.211c.234,0,.351-.084.351-.248a.3.3,0,0,0-.1-.239,1.65,1.65,0,0,0-.414-.22c-.444-.184-.665-.438-.665-.77a.6.6,0,0,1,.253-.516,1.1,1.1,0,0,1,.654-.183,1.648,1.648,0,0,1,.756.178l-.174.462a.829.829,0,0,0-.551-.166c-.21,0-.316.082-.316.247a.217.217,0,0,0,.107.177,1.9,1.9,0,0,0,.443.211,1.122,1.122,0,0,1,.487.321.708.708,0,0,1,.151.456.665.665,0,0,1-.266.558,1.158,1.158,0,0,1-.725.206,1.571,1.571,0,0,1-.412-.044A1.9,1.9,0,0,1,1078.214,285.9Z" transform="translate(-1004.273 -282.413)" fill="#8a000b"/>
      <path id="Path_1041" data-name="Path 1041" d="M1102.5,276.407v-2.063h-.329v-.491h.939v2.555Zm.312-3.542a.344.344,0,0,1,.247.59.35.35,0,0,1-.493,0,.346.346,0,0,1,.245-.59Z" transform="translate(-1026.109 -272.758)" fill="#8a000b"/>
      <path id="Path_1042" data-name="Path 1042" d="M1118.637,276.9h-.3v-.482h.3V275.9l.6-.22v.738h.709v.482h-.709v1.118a.627.627,0,0,0,.086.386.356.356,0,0,0,.3.113.744.744,0,0,0,.407-.115v.549a1.979,1.979,0,0,1-.6.071.794.794,0,0,1-.6-.217.861.861,0,0,1-.206-.614Z" transform="translate(-1040.84 -275.319)" fill="#8a000b"/>
      <path id="Path_1043" data-name="Path 1043" d="M1140.467,286.944a.82.82,0,0,1-.414.423,1.555,1.555,0,0,1-.742.167v-.524c.467,0,.7-.115.7-.346a2.085,2.085,0,0,0-.195-.7l-.808-1.984h.628l.708,1.768.639-1.768h.624Z" transform="translate(-1059.672 -282.884)" fill="#8a000b"/>
    </g>
    <path id="Path_1044" data-name="Path 1044" d="M609.251,167.382v4.1h-1.919v-4.1h-1.388v4.092h-2.764v-4.092H600.4a1.085,1.085,0,0,0-.78.413,1.152,1.152,0,0,0-.262.8v3.944h11.3v-5.163Zm-7.45,4.1-1.065,0v-2.068a.558.558,0,0,1,.171-.413.6.6,0,0,1,.47-.2h.423Z" transform="translate(-567.965 -164.051)" fill="#8a000b"/>
    <path id="Path_1045" data-name="Path 1045" d="M751.517,129.887v7.429h-1.075v-2.933a1.184,1.184,0,0,0-1.092-1.162H746.6v4.094h-.779l-.525,0v-2.947a1.174,1.174,0,0,0-.267-.742,1.158,1.158,0,0,0-.823-.412H742.8v1.418h1.118v2.682h-1.476v1.046h10.475v-8.477Zm-2.45,5.351v2.074h-1.076v-2.677h.422a.579.579,0,0,1,.472.191A.61.61,0,0,1,749.067,135.238Z" transform="translate(-698.337 -129.887)" fill="#8a000b"/>
    <path id="Path_1046" data-name="Path 1046" d="M874.63,138.4V129.9h-1.395v8.488Z" transform="translate(-817.513 -129.901)" fill="#8a000b"/>
    <path id="Path_1047" data-name="Path 1047" d="M256.86,140.245h1.229V138.93H256.86Zm-1.974,0h1.226V138.93h-1.226Zm9.493-2.893h-1.207v-2.926a1.189,1.189,0,0,0-1.094-1.164h-2.74v4.1h-1.253v-4.1h-1.379v4.094h-2.771v-4.094H251.15a1.082,1.082,0,0,0-.778.414,1.159,1.159,0,0,0-.264.8v3.941h15.673v-8.493h-1.4Zm-11.825,0-1.063,0v-2.067a.558.558,0,0,1,.171-.413.606.606,0,0,1,.469-.2h.423Zm9.239-2.076v2.076h-1.074v-2.678h.422a.581.581,0,0,1,.471.191A.6.6,0,0,1,261.793,135.279Zm-9.844-3.837h-1.227v1.314h1.227Zm1.993,0h-1.228v1.314h1.228Zm69.574,5.634v-2.655a1.185,1.185,0,0,0-1.091-1.163H319.68v4.091l-2.285,0a1.185,1.185,0,0,1-1.088-1.059v-1.619h.725v1.567h1.384v-1.616a1.214,1.214,0,0,0-1.077-1.365h-2.4v4.088H313.4V133.25h-2.782a1.077,1.077,0,0,0-.78.412,1.142,1.142,0,0,0-.264.8v3.943h14.06v-.011l.232.025v-1.067C323.5,137.352,323.516,137.076,323.516,137.076Zm-11.484.269-1.066-.007v-2.067a.565.565,0,0,1,.171-.413.611.611,0,0,1,.472-.2h.423Zm10.1.007h-1.069v-2.067a.6.6,0,0,1,.183-.413.581.581,0,0,1,.468-.192h.418Zm6.627,3.118h1.227v-1.313h-1.227Zm-39.474-.006h1.226v-1.315h-1.226Zm-14.256-3.11h-2.769a1.188,1.188,0,0,1-1.133-1.068V134.67h.725v1.568h1.384v-1.619a1.213,1.213,0,0,0-1.079-1.363h-2.4v4.094h-1.63v-7.424h-1.383v8.491h9.677v-8.495h-1.388Zm56.352-.6v-1.929a1.939,1.939,0,0,0-.694-1.2,1.894,1.894,0,0,0-.976-.37H327.7v1.855h1.377v-.722h.424a.45.45,0,0,1,.487.331v1.929a.691.691,0,0,0,.59.686h-4.112v-7.421H325.09v8.5h7.01v-1.062A.711.711,0,0,1,331.384,136.757Zm-40.192,3.708h1.229v-1.315h-1.229Zm-5.445-7.7h1.226v-1.313h-1.226Zm-3.977,0H283v-1.313H281.77Zm-4.337,5.652h1.391v-8.495h-1.391Zm6.3-5.652h1.227v-1.313h-1.227Z" transform="translate(-249.75 -129.916)" fill="#8a000b"/>
    <rect id="Rectangle_373" data-name="Rectangle 373" width="1.226" height="1.313" transform="translate(60.461 1.536)" fill="#8a000b"/>
    <rect id="Rectangle_374" data-name="Rectangle 374" width="1.226" height="1.313" transform="translate(62.425 1.536)" fill="#8a000b"/>
  </g>
</svg>
